<svg width="90" height="67" viewBox="0 0 90 67" fill="none" xmlns="http://www.w3.org/2000/svg">
<path d="M0.0211807 6.38307C0.0858326 6.40698 0.146156 6.43937 0.200183 6.47916C0.342634 6.62113 0.475332 6.7707 0.597546 6.92708C1.03194 7.50843 1.4841 8.08149 1.88069 8.68357C2.96313 10.3048 4.22206 11.8261 5.63905 13.2251C7.49506 15.0851 9.56772 16.7619 11.8217 18.227C12.995 19.0005 14.2423 19.6794 15.5492 20.2559C16.4457 20.6654 17.3997 20.9649 18.3855 21.1462C18.7335 21.2029 19.0892 21.2292 19.4418 21.2575C20.3633 21.3127 21.2888 21.2751 22.201 21.1455C25.058 20.753 27.8346 19.9843 30.4407 18.8644C31.5911 18.3895 32.6952 17.8337 33.8094 17.2959L46.5289 11.1576C49.7309 9.62092 52.9862 8.18034 56.3279 6.90151C59.8427 5.55883 63.4594 4.44148 67.1509 3.55791C69.5392 2.98601 71.9478 2.49201 74.3767 2.07587C75.8427 1.82495 77.3033 1.56986 78.7747 1.34312C79.8117 1.18275 80.858 1.06041 81.8996 0.932523C82.6023 0.845886 83.307 0.769858 84.0137 0.704419C84.685 0.642897 85.357 0.601419 86.0299 0.555105C86.4072 0.53022 86.7852 0.508096 87.1633 0.503949C87.5645 0.498419 87.9658 0.503955 88.3701 0.522618C88.8183 0.544047 89.2659 0.585517 89.7134 0.620079C89.7568 0.626036 89.7996 0.635051 89.8415 0.647039C89.8546 0.712017 89.816 0.729307 89.7643 0.737602C89.1849 0.840599 88.6069 0.939437 88.0236 1.04589C86.2613 1.36732 84.5237 1.77863 82.8 2.23555C79.1412 3.22022 75.5467 4.38749 72.0334 5.7319C69.8324 6.56509 67.6591 7.45336 65.5136 8.39669C61.6711 10.0764 57.9277 11.9166 54.2832 13.917C50.782 15.8245 47.4145 17.9222 44.1995 20.1985C42.6903 21.2768 41.2351 22.4112 39.8339 23.6015C37.7745 25.3587 35.8417 27.223 33.9575 29.1316C31.3049 31.8157 28.7687 34.5883 26.2903 37.4052C24.3609 39.5951 22.4685 41.8103 20.6131 44.0509C18.2145 46.9339 15.863 49.8476 13.5585 52.7918C11.2199 55.7912 8.909 58.8057 6.57806 61.8134C5.55803 63.1268 4.52257 64.4312 3.49174 65.7397C3.27262 66.0162 3.03343 66.2796 2.79347 66.543C2.70908 66.6567 2.58948 66.7458 2.44934 66.7994C2.44202 66.7429 2.44202 66.6859 2.44934 66.6294C2.55659 66.3487 2.65921 66.0646 2.78343 65.7909C3.10827 65.0727 3.45008 64.3635 3.77414 63.648C5.0002 60.9354 6.00763 58.1476 6.7887 55.3059C7.20586 53.7819 7.55154 52.2446 7.82571 50.6939C8.03146 49.51 8.19888 48.3217 8.32799 47.1291C8.42907 46.1689 8.51395 45.2074 8.54944 44.2431C8.5749 43.5435 8.5996 42.8447 8.60191 42.1445C8.60191 41.2327 8.60731 40.3202 8.57336 39.4098C8.5425 38.552 8.47074 37.6955 8.40516 36.8391C8.36349 36.2861 8.31025 35.7393 8.2439 35.1911C8.14282 34.3616 8.03326 33.5273 7.9098 32.6971C7.80281 31.9699 7.6809 31.247 7.54408 30.5286C7.36404 29.5885 7.17166 28.6505 6.96693 27.7145C6.6583 26.3099 6.29565 24.917 5.90524 23.5296C5.06344 20.5344 4.06426 17.5849 2.95318 14.6643C2.39533 13.1995 1.80352 11.7451 1.25107 10.2797C0.872228 9.27597 0.531197 8.26053 0.177813 7.2513C0.120717 7.07987 0.0798148 6.90565 0.0319769 6.72731C-0.00661871 6.61559 -0.0103484 6.49656 0.0211807 6.38307Z" fill="#CC0001"/>
<path d="M55.2276 30.2557H43.8855C43.8467 29.8089 43.8364 29.3605 43.8546 28.9126C43.8484 28.4764 43.8546 28.0319 43.8546 27.5916V26.2568C43.933 26.2377 44.0126 26.2229 44.093 26.2125C44.1848 26.2056 44.279 26.2125 44.3723 26.2125H60.7938C60.9481 26.2125 61.1078 26.2188 61.2876 26.2229C61.2984 26.3107 61.3139 26.3778 61.3147 26.4448C61.3147 27.5508 61.3108 28.6568 61.32 29.7628C61.3143 29.9287 61.2397 30.0867 61.1109 30.206C59.7015 31.7557 58.2934 33.3067 56.8866 34.8588L49.7502 42.7273C49.6923 42.7909 49.6368 42.8566 49.5851 42.9154C49.6129 43.008 49.6885 42.9907 49.7502 42.9928C49.8698 42.9928 49.9886 42.9928 50.109 42.9928H61.3655C61.3878 43.0633 61.4031 43.1355 61.4111 43.2085C61.4137 44.4228 61.4137 45.6368 61.4111 46.8507C61.4088 46.9025 61.403 46.9542 61.3941 47.0055C61.3784 47.019 61.3617 47.0315 61.3439 47.0428C61.3332 47.0494 61.3207 47.0532 61.3077 47.0539C55.382 47.0571 49.4564 47.0599 43.5312 47.0622C43.4733 47.0591 43.4156 47.0531 43.3584 47.0442C43.3383 46.9899 43.3246 46.9338 43.3175 46.8769C43.3175 45.7465 43.3155 44.6156 43.3114 43.4843C43.3168 43.3418 43.3818 43.2063 43.4935 43.1047C44.1935 42.3421 44.8926 41.5784 45.5906 40.8139L51.2008 34.6853L54.9653 30.5716C55.0325 30.4956 55.1011 30.4098 55.2276 30.2557Z" fill="black"/>
<path d="M89.8453 47.0323C89.3623 47.0897 77.9213 47.1098 74.4539 47.0662C74.3643 47.0662 74.2741 47.0572 74.2116 47.0538C74.1761 47.0227 74.1637 47.0157 74.1583 47.0061C74.152 46.9957 74.1489 46.984 74.1491 46.9722C74.1455 40.1297 74.1424 33.2863 74.1398 26.442C74.1398 26.3846 74.1498 26.3272 74.1568 26.247C74.2299 26.2283 74.3048 26.2158 74.3806 26.2097C75.9752 26.2074 77.5697 26.2074 79.1643 26.2097C79.2354 26.2128 79.3062 26.2192 79.3765 26.229C79.3866 26.3106 79.3989 26.3783 79.4012 26.4468C79.4051 26.5539 79.4012 26.6611 79.4012 26.7682V42.9526C79.4811 42.9691 79.5619 42.9813 79.6435 42.9892C79.763 42.9954 79.8827 42.9892 80.0023 42.9892H89.3244C89.4891 42.978 89.6547 42.9869 89.8168 43.0155C89.8708 43.4593 89.836 43.8968 89.8422 44.333C89.8484 44.7851 89.8422 45.2371 89.8422 45.6899L89.8453 47.0323Z" fill="black"/>
<path d="M64.7242 26.2132H69.9393C69.9547 26.3058 69.9701 26.3632 69.9724 26.4206C70.018 27.4194 69.9863 46.7103 69.9362 47.04C69.8788 47.0533 69.8202 47.0621 69.7611 47.0663H64.9001C64.8416 47.0629 64.7835 47.0566 64.7258 47.0476C64.7079 46.9809 64.6945 46.9132 64.6856 46.8451C64.6787 46.7497 64.6856 46.655 64.6856 46.5568V26.7026C64.6679 26.5387 64.6808 26.3733 64.7242 26.2132Z" fill="black"/>
</svg>
